<svg id="Layer_1" height="512" viewBox="0 0 512 512" width="512" xmlns="http://www.w3.org/2000/svg" data-name="Layer 1"><path d="m478.631 219.987h-33.607v-67.687a26.029 26.029 0 0 0 -26-26h-182.788a26.029 26.029 0 0 0 -26 26v67.69h-33.606a23.188 23.188 0 0 0 -23.369 22.949v133.279a9.5 9.5 0 0 0 9.485 9.485h20.732a9.5 9.5 0 0 0 9.486-9.485v-48.476h269.076v48.35a9.5 9.5 0 0 0 9.485 9.485h20.99a9.5 9.5 0 0 0 9.485-9.485v-133.156a23.188 23.188 0 0 0 -23.369-22.949zm-313.37 95.755v-14.006h324.739v14.006zm56.975-163.442a14.016 14.016 0 0 1 14-14h182.788a14.015 14.015 0 0 1 14 14v67.69h-10.907v-19.332a23.187 23.187 0 0 0 -23.369-22.947h-42.283a23.187 23.187 0 0 0 -23.365 22.947v19.329h-10.935v-19.329a23.187 23.187 0 0 0 -23.365-22.947h-42.287a23.187 23.187 0 0 0 -23.369 22.947v19.329h-10.908zm122.86 67.69v-19.332a11.177 11.177 0 0 1 11.369-10.947h42.283a11.177 11.177 0 0 1 11.369 10.947v19.329zm-99.952 0v-19.332a11.177 11.177 0 0 1 11.369-10.947h42.287a11.177 11.177 0 0 1 11.369 10.947v19.329zm-68.514 12h302a11.178 11.178 0 0 1 11.37 10.946v46.8h-324.739v-46.8a11.177 11.177 0 0 1 11.369-10.949zm4.334 141.71h-15.7v-45.958h15.7zm293.076-.126v-45.832h15.96v45.835z"/><path d="m118.544 237.126h-38.663a25.983 25.983 0 0 0 9.1-44.817h14.708a9.512 9.512 0 0 0 7.746-4.089 10.36 10.36 0 0 0 1.236-9.468l-15.1-41.447a9.666 9.666 0 0 0 -8.971-6.438h-32.612a9.643 9.643 0 0 0 -8.973 6.444l-15.092 41.447a10.337 10.337 0 0 0 1.227 9.455 9.5 9.5 0 0 0 7.748 4.1h14.763a25.983 25.983 0 0 0 9.1 44.817h-38.711a16.019 16.019 0 0 0 -16 16v103.212a16.019 16.019 0 0 0 16 16h92.494a16.019 16.019 0 0 0 16-16v-103.216a16.019 16.019 0 0 0 -16-16zm-60.782-94.259h29.066l13.641 37.442h-56.34zm.56 69.383a14 14 0 1 1 14 14 14.016 14.016 0 0 1 -14-14zm-32.272 36.876h92.494a4 4 0 0 1 4 4v43.136l-100.494.028v-43.164a4 4 0 0 1 4-4zm92.494 111.216h-92.494a4 4 0 0 1 -4-4v-48.052l100.494-.028v48.08a4 4 0 0 1 -4 4z"/><path d="m60.265 271.021h24.064a6 6 0 1 0 0-12h-24.064a6 6 0 1 0 0 12z"/><path d="m84.329 318.541h-24.064a6 6 0 1 0 0 12h24.064a6 6 0 1 0 0-12z"/></svg>