<?xml version="1.0" encoding="utf-8"?>
<!-- Generator: Adobe Illustrator 17.0.0, SVG Export Plug-In . SVG Version: 6.00 Build 0)  -->
<!DOCTYPE svg PUBLIC "-//W3C//DTD SVG 1.1//EN" "http://www.w3.org/Graphics/SVG/1.1/DTD/svg11.dtd">
<svg version="1.1" id="Capa_1" xmlns="http://www.w3.org/2000/svg" xmlns:xlink="http://www.w3.org/1999/xlink" x="0px" y="0px"
	 width="612px" height="792px" viewBox="0 0 612 792" enable-background="new 0 0 612 792" xml:space="preserve">
<g>
	<g>
		<path d="M387.6,478.63V385.8c0-16.871-13.729-30.6-30.6-30.6H71.4c-16.871,0-30.6,13.729-30.6,30.6v92.83
			C17.554,483.373,0,503.977,0,528.6v61.2v102c0,5.63,4.57,10.2,10.2,10.2H51c5.63,0,10.2-4.57,10.2-10.2v-30.6h306v30.6
			c0,5.63,4.57,10.2,10.2,10.2h40.8c5.63,0,10.2-4.57,10.2-10.2v-102v-61.2C428.4,503.977,410.846,483.373,387.6,478.63z
			 M61.2,385.8c0-5.62,4.58-10.2,10.2-10.2H357c5.62,0,10.2,4.58,10.2,10.2v91.8h-20.4v-40.8c0-16.871-13.729-30.6-30.6-30.6H255
			c-16.871,0-30.6,13.729-30.6,30.6v40.8H204v-40.8c0-16.871-13.729-30.6-30.6-30.6h-61.2c-16.871,0-30.6,13.729-30.6,30.6v40.8
			H61.2V385.8z M326.4,436.8v40.8h-81.6v-40.8c0-5.62,4.58-10.2,10.2-10.2h61.2C321.82,426.6,326.4,431.18,326.4,436.8z
			 M183.6,436.8v40.8H102v-40.8c0-5.62,4.58-10.2,10.2-10.2h61.2C179.02,426.6,183.6,431.18,183.6,436.8z M408,681.6h-20.4V651
			c0-5.63-4.57-10.2-10.2-10.2H51c-5.63,0-10.2,4.57-10.2,10.2v30.6H20.4V600H408V681.6z M408,579.6H20.4v-51
			c0-16.871,13.729-30.6,30.6-30.6h40.8h102h40.8h102h40.8c16.871,0,30.6,13.729,30.6,30.6V579.6z"/>
	</g>
</g>
<g>
	<g>
		<path d="M601.8,477.6H459c-5.63,0-10.2,4.57-10.2,10.2v81.6v71.4h20.4v-61.2h122.4v61.2H612v-71.4v-81.6
			C612,482.17,607.43,477.6,601.8,477.6z M591.6,559.2H469.2V498h122.4V559.2z"/>
	</g>
</g>
<g>
	<g>
		<rect x="510" y="518.4" width="40.8" height="20.4"/>
	</g>
</g>
<g>
	<g>
		<path d="M580.88,392.767l-20.4-61.2c-1.397-4.162-5.284-6.967-9.68-6.967H510c-4.396,0-8.282,2.805-9.68,6.977l-20.4,61.2
			c-1.04,3.111-0.51,6.528,1.408,9.19s4.998,4.233,8.272,4.233h30.6v30.6h-20.4v20.4H561v-20.4h-20.4v-30.6h30.6
			c3.274,0,6.355-1.571,8.272-4.243C581.39,399.295,581.91,395.878,580.88,392.767z M503.747,385.8l13.607-40.8h26.102l13.597,40.8
			H503.747z"/>
	</g>
</g>
<g>
	<g>
		<path d="M605.972,223.487l-295.8-132.6c-2.662-1.183-5.692-1.183-8.344,0l-295.8,132.6C2.356,225.14,0,228.781,0,232.8v122.4h20.4
			V239.399L306,111.379l285.6,128.03V355.2H612V232.8C612,228.781,609.644,225.14,605.972,223.487z"/>
	</g>
</g>
</svg>
